# xmcd
#
# Track frame offsets: 
#        150
#        12796
#        30505
#
# Disc length: 543 seconds
#
# Revision: 0
# Processed by: cddbd v1.5.1PL0 Copyright (c) Steve Scherf et al.
# Submitted via: ExactAudioCopy v0.95a5
#
DISCID=14021d03
DTITLE=Xavier Floyd Firebird - Boss Man, You Scare Me
DYEAR=2005
DGENRE=Long Live Rock and Roll
TTITLE0=Boss Man, You Scare Me
TTITLE1=Risk The Road
TTITLE2=I Wanna Thankyou For My Travelling
EXTD=
EXTT0=
EXTT1=
EXTT2=
PLAYORDER=
